<svg width="599" height="564" viewBox="0 0 599 564" fill="none" xmlns="http://www.w3.org/2000/svg">
<g clip-path="url(#clip0_2502_3)">
<path d="M118 469.484C118 417.626 158.579 375.587 208.634 375.587H299.269V469.484C299.269 521.341 258.69 563.38 208.634 563.38C158.579 563.38 118 521.341 118 469.484Z" fill="#24CB71"/>
<path d="M299.269 0V187.793H389.903C439.959 187.793 480.538 145.754 480.538 93.8967C480.538 42.0394 439.959 0 389.903 0H299.269Z" fill="#FF7237"/>
<path d="M389.148 375.587C439.204 375.587 479.783 333.548 479.783 281.69C479.783 229.832 439.204 187.793 389.148 187.793C339.092 187.793 298.514 229.832 298.514 281.69C298.514 333.548 339.092 375.587 389.148 375.587Z" fill="#00B6FF"/>
<path d="M118 93.8967C118 145.754 158.579 187.793 208.634 187.793H299.269V0H208.634C158.579 0 118 42.0394 118 93.8967Z" fill="#FF3737"/>
<path d="M118 281.69C118 333.547 158.579 375.587 208.634 375.587H299.269V187.793H208.634C158.579 187.793 118 229.833 118 281.69Z" fill="#874FFF"/>
</g>
<defs>
<clipPath id="clip0_2502_3">
<rect width="598.538" height="563.38" fill="white"/>
</clipPath>
</defs>
</svg>
