<svg width="14" height="12" viewBox="0 0 14 12" fill="none" xmlns="http://www.w3.org/2000/svg">
<path d="M10.9559 11.4V6.49929C10.9559 5.95135 10.8253 5.52631 10.5642 5.22418C10.3081 4.91693 9.9522 4.7633 9.49644 4.7633C9.20455 4.7633 8.95107 4.83243 8.73599 4.97069C8.52091 5.10384 8.35192 5.29331 8.22902 5.53912C8.11124 5.7798 8.05235 6.05889 8.05235 6.37639L7.17667 5.7926C7.17667 5.22418 7.30982 4.72233 7.5761 4.28705C7.84751 3.85178 8.20854 3.5138 8.65917 3.27311C9.11494 3.02731 9.61934 2.90441 10.1724 2.90441C11.1198 2.90441 11.8341 3.18606 12.3155 3.74936C12.802 4.30754 13.0452 5.03983 13.0452 5.94623V11.4H10.9559ZM0.954765 11.4V3.10412H2.79829V5.85405H3.05946V11.4H0.954765ZM5.96302 11.4V6.49929C5.96302 5.95135 5.83243 5.52631 5.57127 5.22418C5.31522 4.91693 4.95932 4.7633 4.50356 4.7633C4.06828 4.7633 3.7175 4.91437 3.45121 5.2165C3.19004 5.51351 3.05946 5.90014 3.05946 6.37639L2.18378 5.76188C2.18378 5.21906 2.31949 4.73257 2.5909 4.30242C2.8623 3.87226 3.22589 3.53172 3.68165 3.2808C4.14253 3.02987 4.65718 2.90441 5.2256 2.90441C5.87596 2.90441 6.40854 3.04267 6.82333 3.3192C7.24324 3.59573 7.55306 3.96444 7.75277 4.42532C7.95249 4.8862 8.05235 5.39317 8.05235 5.94623V11.4H5.96302Z" fill="#818CF8" fill-opacity="0.8"/>
<path d="M0.954765 11.4V3.10412H2.79829V5.85405H3.05946V11.4H0.954765ZM5.96302 11.4V6.49929C5.96302 5.95135 5.83243 5.52631 5.57127 5.22418C5.31522 4.91693 4.95932 4.7633 4.50356 4.7633C4.06828 4.7633 3.7175 4.91437 3.45121 5.2165C3.19004 5.51351 3.05946 5.90014 3.05946 6.37639L2.18378 5.76188C2.18378 5.21906 2.31949 4.73257 2.5909 4.30242C2.8623 3.87226 3.22589 3.53172 3.68165 3.2808C4.14253 3.02987 4.65718 2.90441 5.2256 2.90441C5.87596 2.90441 6.40854 3.04267 6.82333 3.3192C7.24324 3.59573 7.55306 3.96444 7.75277 4.42532C7.95249 4.8862 8.05235 5.39317 8.05235 5.94623V11.4H5.96302Z" fill="#E5E7EB"/>
<circle cx="1.88293" cy="1.52816" r="0.928165" fill="#E5E7EB"/>
</svg>
